<svg xmlns="http://www.w3.org/2000/svg" width="48" height="48" viewBox="0 0 48 48">
  <defs>
    <style>
      .cls-1 {
        fill: #c89d3c;
        stroke: #000;
        stroke-width: 0;
        stroke-dasharray: 0.001 0;
        fill-rule: evenodd;
      }
    </style>
  </defs>
  <path id="Shape_2_copy" data-name="Shape 2 copy" class="cls-1" d="M35.957,4c-3.39.082-15.391,0.256-15.724,0.279-0.515.1-8.032,1.391-8.669,8.915-0.705,13.65,22.2,10.2,20.845,18.905a4.87,4.87,0,0,1-6.774,2.149C23.175,33.254,11,28.119,11,28.119v6.05l13.749,5.453s7.778,2.963,12.1-4.776C43.924,18.3,16.116,21.478,16.9,13.157,19.125,3.914,33.647,13.19,35.957,4Z"/>
  <path id="Shape_3_copy" data-name="Shape 3 copy" class="cls-1" d="M11,38.666c0.149,0.063,10.36,4.346,10.926,4.577-2.34-.155-3.416,1.665-5.443,1.751A13.44,13.44,0,0,1,11,43.6V38.666Z"/>
</svg>
