<svg width="50" height="50" viewBox="0 0 50 50" fill="none" xmlns="http://www.w3.org/2000/svg">
<path d="M38.2812 34.375L28.9062 43.75H32.0312V47.6562L38.2812 41.4062L44.5312 47.6562V42.9688H47.6562L38.2812 34.375Z" fill="white"/>
<path d="M39.0625 14.8438H15.625V16.4062H39.0625V14.8438Z" fill="#444444"/>
<path d="M39.0625 19.5312H15.625V21.0938H39.0625V19.5312Z" fill="#444444"/>
<path d="M39.0625 24.2188H15.625V25.7812H39.0625V24.2188Z" fill="#444444"/>
<path d="M39.0625 28.9062H15.625V30.4688H39.0625V28.9062Z" fill="#444444"/>
<path d="M27.3438 11.7188C28.6382 11.7188 29.6875 10.6694 29.6875 9.375C29.6875 8.08058 28.6382 7.03125 27.3438 7.03125C26.0493 7.03125 25 8.08058 25 9.375C25 10.6694 26.0493 11.7188 27.3438 11.7188Z" fill="white"/>
<path d="M6.25 2.34375C7.286 2.34375 8.27957 2.7553 9.01214 3.48786C9.7447 4.22043 10.1562 5.214 10.1562 6.25V10.1562H2.34375V6.25C2.34375 5.214 2.7553 4.22043 3.48786 3.48786C4.22043 2.7553 5.214 2.34375 6.25 2.34375Z" fill="#CFCFD9"/>
<path d="M38.2812 42.9688C40.8701 42.9688 42.9688 40.8701 42.9688 38.2812C42.9688 35.6924 40.8701 33.5938 38.2812 33.5938C35.6924 33.5938 33.5938 35.6924 33.5938 38.2812C33.5938 40.8701 35.6924 42.9688 38.2812 42.9688Z" fill="#027DE5"/>
<path d="M38.2812 41.4062C40.0071 41.4062 41.4062 40.0071 41.4062 38.2812C41.4062 36.5554 40.0071 35.1562 38.2812 35.1562C36.5554 35.1562 35.1562 36.5554 35.1562 38.2812C35.1562 40.0071 36.5554 41.4062 38.2812 41.4062Z" fill="#CCEAFF"/>
<path d="M34.375 45.3125L32.8125 46.875H43.75L42.1875 45.3125H34.375Z" fill="white"/>
<path d="M39.9445 1.5625H6.25C5.00718 1.56374 3.81562 2.058 2.93681 2.93681C2.058 3.81562 1.56374 5.00718 1.5625 6.25V10.1562C1.5625 10.3635 1.64481 10.5622 1.79132 10.7087C1.93784 10.8552 2.13655 10.9375 2.34375 10.9375H9.375V46.0938C9.375 46.3009 9.45731 46.4997 9.60382 46.6462C9.75034 46.7927 9.94905 46.875 10.1562 46.875H32.0312V45.3125H10.9375V6.25C10.9372 5.0953 10.5085 3.98179 9.73438 3.125H39.9445C40.9534 3.12624 41.9206 3.52757 42.634 4.24097C43.3474 4.95436 43.7488 5.92158 43.75 6.93047V39.3883L45.3125 40.8203V6.93047C45.3111 5.50724 44.745 4.14272 43.7387 3.13634C42.7323 2.12996 41.3678 1.56395 39.9445 1.5625ZM9.375 9.375H3.125V6.25C3.125 5.4212 3.45424 4.62634 4.04029 4.04029C4.62634 3.45424 5.4212 3.125 6.25 3.125C7.0788 3.125 7.87366 3.45424 8.45971 4.04029C9.04576 4.62634 9.375 5.4212 9.375 6.25V9.375Z" fill="white"/>
<path d="M39.0625 14.8438H15.625V16.4062H39.0625V14.8438Z" fill="white"/>
<path d="M39.0625 19.5312H15.625V21.0938H39.0625V19.5312Z" fill="white"/>
<path d="M39.0625 24.2188H15.625V25.7812H39.0625V24.2188Z" fill="white"/>
<path d="M39.0625 28.9062H15.625V30.4688H39.0625V28.9062Z" fill="white"/>
<path d="M30.4688 9.375C30.4688 8.75694 30.2855 8.15275 29.9421 7.63885C29.5987 7.12494 29.1107 6.7244 28.5396 6.48788C27.9686 6.25135 27.3403 6.18947 26.7341 6.31005C26.1279 6.43063 25.5711 6.72825 25.134 7.16529C24.697 7.60233 24.3994 8.15915 24.2788 8.76534C24.1582 9.37154 24.2201 9.99987 24.4566 10.5709C24.6932 11.1419 25.0937 11.63 25.6076 11.9733C26.1215 12.3167 26.7257 12.5 27.3438 12.5C28.1726 12.5 28.9674 12.1708 29.5535 11.5847C30.1395 10.9987 30.4688 10.2038 30.4688 9.375ZM25.7813 9.375C25.7813 9.06597 25.8729 8.76388 26.0446 8.50692C26.2163 8.24997 26.4603 8.0497 26.7458 7.93144C27.0313 7.81318 27.3455 7.78224 27.6486 7.84252C27.9517 7.90281 28.2301 8.05163 28.4486 8.27015C28.6671 8.48867 28.8159 8.76708 28.8762 9.07017C28.9365 9.37327 28.9056 9.68743 28.7873 9.97294C28.6691 10.2585 28.4688 10.5025 28.2118 10.6742C27.9549 10.8459 27.6528 10.9375 27.3438 10.9375C26.9294 10.9375 26.5319 10.7729 26.2389 10.4799C25.9459 10.1868 25.7813 9.7894 25.7813 9.375Z" fill="white"/>
</svg>
