<svg width="71" height="72" viewBox="0 0 71 72" fill="none" xmlns="http://www.w3.org/2000/svg">
<path d="M56.4597 51.2031L42.0444 65.6184H46.8495V71.6247L56.4597 62.0146L66.0699 71.6247V64.4171H70.8749L56.4597 51.2031Z" fill="black"/>
<path d="M57.6612 21.1719H21.623V23.5744H57.6612V21.1719Z" fill="#444444"/>
<path d="M57.6612 28.3789H21.623V30.7814H57.6612V28.3789Z" fill="#444444"/>
<path d="M57.6611 35.5869H21.6229V37.9895H57.6611V35.5869Z" fill="#444444"/>
<path d="M57.6612 42.7949H21.623V45.1975H57.6612V42.7949Z" fill="#444444"/>
<path d="M39.6419 16.3668C41.6322 16.3668 43.2457 14.7533 43.2457 12.763C43.2457 10.7727 41.6322 9.15918 39.6419 9.15918C37.6516 9.15918 36.0381 10.7727 36.0381 12.763C36.0381 14.7533 37.6516 16.3668 39.6419 16.3668Z" fill="white"/>
<path d="M7.20765 1.95129C8.80063 1.95129 10.3284 2.5841 11.4548 3.71051C12.5812 4.83693 13.214 6.36467 13.214 7.95765V13.964H1.20129V7.95765C1.20129 6.36467 1.8341 4.83693 2.96051 3.71051C4.08693 2.5841 5.61467 1.95129 7.20765 1.95129Z" fill="#CFCFD9"/>
<path d="M56.4597 64.4173C60.4404 64.4173 63.6673 61.1904 63.6673 57.2097C63.6673 53.229 60.4404 50.0021 56.4597 50.0021C52.479 50.0021 49.2521 53.229 49.2521 57.2097C49.2521 61.1904 52.479 64.4173 56.4597 64.4173Z" fill="#182432"/>
<path d="M56.4599 62.0145C59.1136 62.0145 61.265 59.8632 61.265 57.2094C61.265 54.5556 59.1136 52.4043 56.4599 52.4043C53.8061 52.4043 51.6548 54.5556 51.6548 57.2094C51.6548 59.8632 53.8061 62.0145 56.4599 62.0145Z" fill="white"/>
<path d="M50.4533 68.0215L48.0508 70.424H64.8686L62.466 68.0215H50.4533Z" fill="#C7A055"/>
<path d="M59.0173 0.75H7.20763C5.29663 0.751908 3.46445 1.51189 2.11317 2.86317C0.761894 4.21445 0.00190814 6.04663 0 7.95763V13.964C0 14.2826 0.126562 14.5881 0.351844 14.8134C0.577126 15.0387 0.882674 15.1653 1.20127 15.1653H12.0127V69.2225C12.0127 69.5411 12.1393 69.8466 12.3646 70.0719C12.5898 70.2972 12.8954 70.4237 13.214 70.4237H46.8496V68.0212H14.4153V7.95763C14.4148 6.18213 13.7556 4.46996 12.5653 3.15254H59.0173C60.5686 3.15445 62.0558 3.77155 63.1527 4.86848C64.2496 5.96542 64.8667 7.45263 64.8686 9.00393V58.9119L67.2712 61.1139V9.00393C67.269 6.81554 66.3986 4.71741 64.8512 3.16998C63.3038 1.62255 61.2057 0.752226 59.0173 0.75ZM12.0127 12.7627H2.40254V7.95763C2.40254 6.68324 2.90879 5.46105 3.80992 4.55992C4.71105 3.65879 5.93324 3.15254 7.20763 3.15254C8.48201 3.15254 9.70421 3.65879 10.6053 4.55992C11.5065 5.46105 12.0127 6.68324 12.0127 7.95763V12.7627Z" fill="#C7A055"/>
<path d="M57.6612 21.1719H21.623V23.5744H57.6612V21.1719Z" fill="#C7A055"/>
<path d="M57.6612 28.3789H21.623V30.7814H57.6612V28.3789Z" fill="#C7A055"/>
<path d="M57.6611 35.5869H21.6229V37.9895H57.6611V35.5869Z" fill="#C7A055"/>
<path d="M57.6612 42.7949H21.623V45.1975H57.6612V42.7949Z" fill="#C7A055"/>
<path d="M44.4471 12.7631C44.4471 11.8127 44.1653 10.8837 43.6373 10.0935C43.1093 9.30334 42.3588 8.68746 41.4808 8.32378C40.6028 7.96009 39.6367 7.86493 38.7046 8.05034C37.7725 8.23574 36.9163 8.69338 36.2443 9.36539C35.5723 10.0374 35.1146 10.8936 34.9292 11.8257C34.7438 12.7578 34.839 13.7239 35.2027 14.6019C35.5664 15.4799 36.1822 16.2304 36.9724 16.7584C37.7626 17.2864 38.6916 17.5682 39.642 17.5682C40.9164 17.5682 42.1386 17.0619 43.0397 16.1608C43.9408 15.2597 44.4471 14.0375 44.4471 12.7631ZM37.2395 12.7631C37.2395 12.2879 37.3804 11.8234 37.6444 11.4283C37.9084 11.0332 38.2836 10.7253 38.7226 10.5434C39.1616 10.3616 39.6447 10.314 40.1107 10.4067C40.5768 10.4994 41.0049 10.7282 41.3409 11.0642C41.6769 11.4002 41.9057 11.8283 41.9984 12.2944C42.0911 12.7604 42.0435 13.2435 41.8617 13.6825C41.6798 14.1215 41.3719 14.4967 40.9768 14.7607C40.5817 15.0247 40.1172 15.1656 39.642 15.1656C39.0048 15.1656 38.3937 14.9125 37.9431 14.4619C37.4926 14.0114 37.2395 13.4003 37.2395 12.7631Z" fill="#C7A055"/>
</svg>
