<svg width="84" height="68" viewBox="0 0 84 68" fill="none" xmlns="http://www.w3.org/2000/svg">
<path d="M60.7505 24.6254C59.0144 24.6254 57.5394 24.0184 56.3255 22.8045C55.1116 21.5906 54.5033 20.1143 54.5005 18.3754C54.4977 16.6365 55.106 15.1615 56.3255 13.9504C57.5449 12.7393 59.0199 12.1309 60.7505 12.1254C62.481 12.1198 63.9574 12.7281 65.1796 13.9504C66.4019 15.1726 67.0088 16.6476 67.0005 18.3754C66.9922 20.1031 66.3852 21.5795 65.1796 22.8045C63.9741 24.0295 62.4977 24.6365 60.7505 24.6254ZM23.2505 24.6254C21.5144 24.6254 20.0394 24.0184 18.8255 22.8045C17.6116 21.5906 17.0033 20.1143 17.0005 18.3754C16.9977 16.6365 17.606 15.1615 18.8255 13.9504C20.0449 12.7393 21.5199 12.1309 23.2505 12.1254C24.981 12.1198 26.4574 12.7281 27.6797 13.9504C28.9019 15.1726 29.5088 16.6476 29.5005 18.3754C29.4922 20.1031 28.8852 21.5795 27.6797 22.8045C26.4741 24.0295 24.9977 24.6365 23.2505 24.6254ZM42.0005 36.0837C40.2644 36.0837 38.7894 35.4768 37.5755 34.2629C36.3616 33.049 35.7533 31.5726 35.7505 29.8337C35.7477 28.0948 36.356 26.6198 37.5755 25.4087C38.7949 24.1976 40.2699 23.5893 42.0005 23.5837C43.731 23.5781 45.2074 24.1865 46.4297 25.4087C47.6519 26.6309 48.2588 28.1059 48.2505 29.8337C48.2422 31.5615 47.6352 33.0379 46.4297 34.2629C45.2241 35.4879 43.7477 36.0948 42.0005 36.0837ZM42.0005 13.167C40.2644 13.167 38.7894 12.5601 37.5755 11.3462C36.3616 10.1323 35.7533 8.65592 35.7505 6.91703C35.7477 5.17814 36.356 3.70314 37.5755 2.49203C38.7949 1.28092 40.2699 0.672585 42.0005 0.66703C43.731 0.661474 45.2074 1.26981 46.4297 2.49203C47.6519 3.71425 48.2588 5.18925 48.2505 6.91703C48.2422 8.64481 47.6352 10.1212 46.4297 11.3462C45.2241 12.5712 43.7477 13.1781 42.0005 13.167ZM42.0005 67.3337C40.6116 67.3337 39.206 67.2295 37.7838 67.0212C36.3616 66.8129 34.9894 66.5351 33.6672 66.1879V51.292C33.6672 48.8615 34.4838 46.7615 36.1172 44.992C37.7505 43.2226 39.7116 42.3365 42.0005 42.3337C44.2894 42.3309 46.2519 43.217 47.888 44.992C49.5241 46.767 50.3394 48.867 50.3338 51.292V66.1879C49.0144 66.5351 47.6435 66.8129 46.2213 67.0212C44.7991 67.2295 43.3922 67.3337 42.0005 67.3337ZM27.4172 64.0004C26.0283 63.4448 24.6922 62.8198 23.4088 62.1254C22.1255 61.4309 20.8922 60.667 19.7088 59.8337C17.7644 58.4448 16.2199 56.6393 15.0755 54.417C13.931 52.1948 13.3574 49.8337 13.3547 47.3337C13.3547 45.5281 13.1644 43.8448 12.7838 42.2837C12.4033 40.7226 11.7255 39.2462 10.7505 37.8545C10.056 36.9518 8.75465 35.5809 6.84632 33.742C4.93799 31.9031 3.18382 30.1837 1.58382 28.5837C0.819932 27.8198 0.437988 26.8476 0.437988 25.667C0.437988 24.4865 0.819932 23.5143 1.58382 22.7504C2.34771 21.9865 3.31993 21.6045 4.50049 21.6045C5.68104 21.6045 6.65327 21.9865 7.41715 22.7504L23.3547 37.8545C24.7435 39.1045 25.7685 40.5809 26.4297 42.2837C27.0908 43.9865 27.4199 45.7393 27.4172 47.542V64.0004ZM56.5838 64.0004V47.542C56.5838 45.7365 56.931 43.9656 57.6255 42.2295C58.3199 40.4934 59.3269 39.0351 60.6463 37.8545L76.5838 22.7504C77.4171 21.9865 78.4074 21.6045 79.5547 21.6045C80.7019 21.6045 81.656 21.9865 82.4172 22.7504C83.1783 23.5143 83.5602 24.4865 83.563 25.667C83.5658 26.8476 83.1838 27.8198 82.4172 28.5837C80.8199 30.1809 79.0658 31.8823 77.1547 33.6879C75.2435 35.4934 73.9422 36.8823 73.2505 37.8545C72.2783 39.2434 71.6005 40.7198 71.2171 42.2837C70.8338 43.8476 70.6435 45.5309 70.6463 47.3337C70.6463 49.8337 70.0727 52.2129 68.9255 54.4712C67.7783 56.7295 66.1991 58.5518 64.188 59.9379C63.0769 60.7018 61.8797 61.4309 60.5963 62.1254C59.313 62.8198 57.9755 63.4448 56.5838 64.0004Z" fill="#C7A055"/>
</svg>
