<svg width="49" height="49" viewBox="0 0 49 49" fill="none" xmlns="http://www.w3.org/2000/svg">
<path d="M24.501 2.20117C24.1469 2.20117 23.7928 2.21074 23.4387 2.22701L23.5152 3.94775C23.8406 3.93244 24.166 3.92383 24.501 3.92383C35.8705 3.92383 45.0771 13.1305 45.0771 24.5C45.0771 35.8695 35.8705 45.0762 24.501 45.0762C15.926 45.0762 8.58076 39.8412 5.48955 32.3859L8.13383 31.5916L3.49893 28.309L1.67578 33.5248L3.83389 32.8836C7.14809 41.0375 15.1604 46.7988 24.501 46.7988C36.8084 46.7988 46.7998 36.8074 46.7998 24.5C46.7998 12.1926 36.8084 2.20117 24.501 2.20117ZM21.5533 2.39641C20.2805 2.56389 19.0555 2.83664 17.8592 3.20797L18.3951 4.84354C19.4861 4.50475 20.625 4.25496 21.783 4.10184L21.5533 2.39641ZM16.0982 3.84344C14.9115 4.32674 13.7822 4.90766 12.7104 5.57758L13.6195 7.03322C14.6053 6.41689 15.6484 5.88191 16.7395 5.43785L16.0982 3.84344ZM11.1408 6.65137C10.1361 7.40441 9.1965 8.24061 8.33193 9.15113L9.58086 10.3264C10.3752 9.48705 11.2461 8.7176 12.1648 8.02375L11.7055 7.39498L11.1408 6.65137ZM17.7922 7.4725L17.3711 9.14156L38.1387 14.4512L38.5598 12.7859L17.7922 7.4725ZM7.08971 10.5752C6.3059 11.5514 5.60248 12.6041 4.98998 13.7047L6.48773 14.5469C7.05334 13.5229 7.70221 12.5562 8.42668 11.6471L7.08971 10.5752ZM19.3043 11.4174C18.9311 13.9057 19.5723 16.7002 20.6633 18.9971C21.2758 20.2795 22.0223 21.4088 22.7592 22.2318C23.1611 22.6816 23.5631 23.0262 23.9268 23.275L23.41 25.3039C22.9697 25.3422 22.4529 25.457 21.8787 25.658C20.8355 26.0217 19.6393 26.6533 18.4908 27.4859C16.4236 28.9789 14.5287 31.1131 13.6674 33.477L29.6977 37.5826C30.0709 35.0943 29.4297 32.2998 28.3387 30.0029C27.7262 28.7205 26.9797 27.5912 26.2428 26.7682C25.8408 26.3184 25.4389 25.9738 25.0752 25.725L25.592 23.6961C26.0227 23.6482 26.549 23.543 27.1232 23.342C28.1664 22.9783 29.3627 22.3467 30.5111 21.5141C32.5783 20.0211 34.4732 17.8869 35.3346 15.523L19.3043 11.4174ZM4.13918 15.3986C3.62908 16.5471 3.21086 17.7338 2.89504 18.9684L4.56793 19.3703C4.85791 18.241 5.24168 17.15 5.71158 16.0973L4.13918 15.3986ZM2.5084 20.8154C2.30838 22.0117 2.20215 23.2463 2.20215 24.5V24.5861L3.9248 24.567V24.5C3.9248 23.342 4.02242 22.2031 4.20713 21.093L2.5084 20.8154ZM10.8633 34.5488L10.4422 36.2141L31.2098 41.5256L31.6309 39.8604L10.8633 34.5488Z" fill="white"/>
</svg>
