<svg width="63" height="63" viewBox="0 0 63 63" fill="none" xmlns="http://www.w3.org/2000/svg">
<g clip-path="url(#clip0_1039_626)">
<path d="M10.4015 38.5495C11.8631 44.4683 13.7216 47.0576 19.9208 49.7698C26.1232 52.4788 29.0684 55.4398 31.5002 55.4398C33.9289 55.4398 36.6914 52.8505 42.8906 50.1352C49.093 47.423 47.4361 46.5977 48.8977 40.6789L31.5002 49.1398L10.4015 38.5495ZM61.4599 23.1082L35.2361 8.42286C33.1823 7.27311 29.8181 7.27311 27.7643 8.42286L1.53742 23.1082C-0.51638 24.2579 -0.51638 26.1416 1.53742 27.2914L27.7612 41.9767C29.815 43.1264 33.1792 43.1264 35.233 41.9767L52.1863 32.4826L33.8029 28.1765C33.0494 28.361 32.276 28.452 31.5002 28.4474C28.1864 28.4474 25.5026 26.8535 25.5026 24.8848C25.5026 22.9097 28.1896 21.3158 31.5002 21.3158C34.0706 21.3158 36.2567 22.2829 37.1072 23.6279L56.5805 30.0193L61.4599 27.2882C63.5105 26.1416 63.5105 24.2579 61.4599 23.1082ZM53.4463 50.9353C53.2415 52.148 57.4877 54.142 57.8909 50.5982C59.7148 34.6214 56.5805 30.0256 56.5805 30.0256L52.1863 32.4826C52.1863 32.4794 55.9127 36.0295 53.4463 50.9353Z" fill="#00A95A"/>
</g>
<defs>
<clipPath id="clip0_1039_626">
<rect width="63" height="63" fill="white"/>
</clipPath>
</defs>
</svg>
