<svg width="25" height="25" viewBox="0 0 25 25" fill="none" xmlns="http://www.w3.org/2000/svg">
<g clip-path="url(#clip0_3124_2260)">
<path fill-rule="evenodd" clip-rule="evenodd" d="M23.5246 0.149414H1.52568C0.77145 0.149414 0.160645 0.76022 0.160645 1.51445V23.5133C0.160645 24.2676 0.77145 24.8784 1.52568 24.8784H13.3684V15.3021H10.1462V11.5705H13.3684V8.81692C13.3684 5.62194 15.3195 3.88349 18.1695 3.88349C19.5346 3.88349 20.7067 3.98488 21.0492 4.03063V7.36904H19.0734C17.5229 7.36904 17.2236 8.10596 17.2236 9.18662V11.5693H20.9194L20.4372 15.3009H17.2224V24.8784H23.5246C24.2788 24.8784 24.8896 24.2676 24.8896 23.5133V1.51445C24.8896 0.76022 24.2788 0.149414 23.5246 0.149414Z" fill="#95D8F2"/>
</g>
<defs>
<clipPath id="clip0_3124_2260">
<rect width="24.729" height="24.729" fill="white" transform="translate(0.160645 0.149414)"/>
</clipPath>
</defs>
</svg>
