<svg width="36" height="36" viewBox="0 0 36 36" fill="none" xmlns="http://www.w3.org/2000/svg">
<path d="M31.348 12.4871C31.334 11.3722 31.1253 10.2683 30.7312 9.22525C30.3911 8.34478 29.8705 7.54516 29.2031 6.87772C28.5357 6.21028 27.736 5.68976 26.8556 5.34957C25.8257 4.96281 24.7377 4.75376 23.6379 4.73135C22.2218 4.66805 21.7729 4.65039 18.1783 4.65039C14.5838 4.65039 14.1231 4.65039 12.7174 4.73135C11.618 4.75393 10.5305 4.96297 9.50113 5.34957C8.62066 5.68976 7.82104 6.21028 7.1536 6.87772C6.48616 7.54516 5.96564 8.34478 5.62545 9.22525C5.23935 10.2547 5.03081 11.3422 5.0087 12.4415C4.94541 13.859 4.92627 14.3079 4.92627 17.9025C4.92627 21.497 4.92627 21.9563 5.0087 23.3634C5.03078 24.4645 5.23833 25.5508 5.62545 26.5826C5.96597 27.463 6.4868 28.2624 7.15449 28.9296C7.82219 29.5968 8.622 30.117 9.5026 30.4568C10.5293 30.8585 11.6169 31.0825 12.7188 31.1192C14.1363 31.1825 14.5853 31.2016 18.1798 31.2016C21.7744 31.2016 22.2351 31.2016 23.6408 31.1192C24.7406 31.0973 25.8286 30.8887 26.8585 30.5025C27.7381 30.1607 28.5369 29.6396 29.2041 28.9724C29.8713 28.3051 30.3924 27.5063 30.7342 26.6268C31.1213 25.5964 31.3289 24.5101 31.3509 23.4076C31.4142 21.9916 31.4334 21.5426 31.4334 17.9466C31.4304 14.3521 31.4304 13.8958 31.348 12.4871ZM18.1695 24.7C14.4101 24.7 11.3646 21.6545 11.3646 17.8951C11.3646 14.1357 14.4101 11.0902 18.1695 11.0902C19.9743 11.0902 21.7051 11.8072 22.9813 13.0833C24.2575 14.3595 24.9744 16.0903 24.9744 17.8951C24.9744 19.6999 24.2575 21.4307 22.9813 22.7069C21.7051 23.983 19.9743 24.7 18.1695 24.7ZM25.2452 12.4253C25.0368 12.4255 24.8304 12.3846 24.6378 12.3049C24.4452 12.2252 24.2702 12.1084 24.1228 11.961C23.9754 11.8136 23.8585 11.6386 23.7789 11.446C23.6992 11.2534 23.6583 11.047 23.6585 10.8385C23.6585 10.6302 23.6995 10.424 23.7792 10.2316C23.8589 10.0391 23.9757 9.8643 24.123 9.71702C24.2703 9.56974 24.4451 9.45292 24.6376 9.37321C24.83 9.29351 25.0362 9.25248 25.2445 9.25248C25.4528 9.25248 25.659 9.29351 25.8515 9.37321C26.0439 9.45292 26.2187 9.56974 26.366 9.71702C26.5133 9.8643 26.6301 10.0391 26.7098 10.2316C26.7895 10.424 26.8305 10.6302 26.8305 10.8385C26.8305 11.7158 26.1211 12.4253 25.2452 12.4253Z" fill="#95D8F2"/>
<path d="M18.1708 22.3142C20.6121 22.3142 22.5911 20.3352 22.5911 17.8939C22.5911 15.4527 20.6121 13.4736 18.1708 13.4736C15.7295 13.4736 13.7505 15.4527 13.7505 17.8939C13.7505 20.3352 15.7295 22.3142 18.1708 22.3142Z" fill="#95D8F2"/>
</svg>
