<svg width="52" height="52" viewBox="0 0 52 52" fill="none" xmlns="http://www.w3.org/2000/svg">
<path fill-rule="evenodd" clip-rule="evenodd" d="M26.1406 0.931152C40.0638 0.931152 51.3511 12.2184 51.3511 26.1416C51.3511 40.0648 40.0638 51.352 26.1406 51.352C12.2174 51.352 0.930176 40.0648 0.930176 26.1416C0.930176 12.2184 12.2174 0.931152 26.1406 0.931152ZM29.7287 19.1765C30.0394 18.8431 30.2085 18.4021 30.2005 17.9464C30.1925 17.4907 30.0079 17.056 29.6856 16.7337C29.3634 16.4115 28.9286 16.2269 28.4729 16.2188C28.0173 16.2108 27.5763 16.3799 27.2428 16.6906L19.0348 24.8987C18.7054 25.2285 18.5204 25.6755 18.5204 26.1416C18.5204 26.6077 18.7054 27.0547 19.0348 27.3845L27.2428 35.5926C27.4039 35.7654 27.598 35.904 27.8138 36.0001C28.0296 36.0963 28.2625 36.1479 28.4986 36.1521C28.7348 36.1563 28.9694 36.1128 29.1884 36.0244C29.4074 35.9359 29.6063 35.8042 29.7734 35.6372C29.9404 35.4702 30.072 35.2713 30.1605 35.0523C30.249 34.8332 30.2924 34.5987 30.2882 34.3625C30.2841 34.1263 30.2324 33.8934 30.1363 33.6777C30.0401 33.4619 29.9015 33.2677 29.7287 33.1067L22.7636 26.1416L29.7287 19.1765Z" fill="#00A95A"/>
</svg>
