<svg width="49" height="49" viewBox="0 0 49 49" fill="none" xmlns="http://www.w3.org/2000/svg">
<path d="M5.29852 16.9717C3.82907 19.8808 3 23.1777 3 26.6711C3 38.4351 12.402 47.9717 24 47.9717C35.598 47.9717 45 38.4351 45 26.6711C45 23.5289 44.3292 20.5456 43.125 17.8605" stroke="white" stroke-width="2"/>
<path d="M16.2816 22.4347L15.6258 24.013C15.5658 24.1573 15.6348 24.3245 15.7792 24.3845L24.8124 28.1381C24.8977 28.1735 24.9928 28.1669 25.0707 28.1184L31.2849 24.3403C31.4193 24.2576 31.4645 24.084 31.3818 23.9496L30.4921 22.4794C30.4075 22.3404 30.2325 22.2985 30.1014 22.3825L24.7742 25.6558L16.6532 22.2813C16.5088 22.2213 16.3416 22.2903 16.2816 22.4347ZM21.746 16.2479L25.1405 11.6251C25.2481 11.4774 25.1902 11.2648 25.0229 11.1953L19.7346 8.96707C19.5148 8.87572 19.2851 9.07657 19.352 9.30445L21.2424 16.1541C21.2564 16.2057 21.2847 16.2524 21.324 16.2886C21.3633 16.3249 21.4121 16.3494 21.4647 16.3592C21.5173 16.369 21.5716 16.3637 21.6214 16.344C21.6711 16.3243 21.7143 16.291 21.746 16.2479ZM33.9122 14.8506L32.4993 16.4452C32.4501 16.5008 32.4246 16.5735 32.4283 16.6476C32.432 16.7218 32.4646 16.7916 32.5191 16.842C32.6605 16.9739 32.7973 17.1077 32.9327 17.2448C34.0714 18.4029 34.9674 19.7563 35.5893 21.2691C36.2108 22.7678 36.5357 24.3729 36.5458 25.9954C36.5562 27.676 36.2279 29.3416 35.5805 30.8926C34.9288 32.4611 33.9924 33.8535 32.7909 35.0318C31.6339 36.1693 30.2672 37.0715 28.7666 37.6884C27.257 38.3116 25.6658 38.6316 24.0403 38.6449C22.3602 38.6517 20.6958 38.3212 19.1458 37.6731C17.5774 37.0213 16.1817 36.0835 15.0033 34.8821C13.8646 33.724 12.9687 32.3705 12.3468 30.8577C11.7252 29.359 11.4004 27.7539 11.3902 26.1315C11.3749 24.4552 11.7024 22.8059 12.3541 21.2375C13.0059 19.6691 13.9423 18.2767 15.1438 17.0983C16.3008 15.9608 17.6675 15.0587 19.1681 14.4418C19.6452 14.2475 20.1271 14.0784 20.6179 13.9437L19.8976 11.3435C15.5237 12.5542 11.7305 15.6915 9.85768 20.2078C6.59414 28.071 10.3561 37.0373 18.2539 40.2268C26.0139 43.359 34.8625 39.6673 38.0789 31.9269C40.6081 25.8403 38.9036 19.0525 34.3203 14.8316C34.2029 14.7251 34.0187 14.7333 33.9122 14.8506Z" fill="white"/>
<path d="M9.30337 13.8759L9.93665 14.2393L8.76598 16.6872L5 14.5261L5.4079 13.6732L8.54059 15.4709L9.30337 13.8759Z" fill="white"/>
<path d="M12.16 11.3141L11.5586 12.0251L8.43994 8.86004L9.04133 8.14903L12.16 11.3141Z" fill="white"/>
<path d="M13.4067 5.24899L14.0149 6.35013L15.3235 5.48286L15.6814 6.13092L14.3728 6.99819L15.251 8.58813L14.494 9.08988L12.2931 5.10543L14.6095 3.57026L14.9659 4.21557L13.4067 5.24899Z" fill="white"/>
<path d="M19.5717 2.40815L19.8108 3.57628L21.1946 3.23639L21.3401 3.9473L19.9563 4.28719L20.2006 5.48038L21.9789 5.04358L22.1296 5.77954L19.4878 6.42842L18.5576 1.88427L21.1993 1.23539L21.35 1.97135L19.5717 2.40815Z" fill="white"/>
<path d="M28.3533 2.12322L27.1175 1.98338L26.7535 5.84313L25.8762 5.74386L26.2402 1.88411L25.0045 1.74427L25.0773 0.97168L28.4261 1.35063L28.3533 2.12322Z" fill="white"/>
<path d="M31.3177 7.24613L30.4967 6.88449L32.0829 2.56378L32.9039 2.92542L31.3177 7.24613Z" fill="white"/>
<path d="M40.3637 8.51821L37.6057 12.0624L37.0148 11.5106L38.7083 9.3343C38.7438 9.28871 38.7826 9.24055 38.8246 9.18983C38.8681 9.1405 38.9138 9.09174 38.9615 9.04356L36.5403 10.1018C36.4074 10.1605 36.2882 10.1405 36.1826 10.042L36.0889 9.95452C36.0369 9.90594 36.001 9.84988 35.9811 9.78635C35.9625 9.7212 35.9616 9.65146 35.9784 9.57714L36.5501 6.77931C36.5102 6.84047 36.4708 6.89931 36.432 6.95582C36.3944 7.0107 36.3579 7.06094 36.3224 7.10654L34.6289 9.28286L34.0379 8.73112L36.7959 5.18696L37.3043 5.66167C37.3325 5.68804 37.3572 5.71245 37.3782 5.7349C37.3992 5.75735 37.4148 5.78028 37.4248 5.80369C37.4375 5.82686 37.4443 5.85283 37.445 5.8816C37.4485 5.91014 37.4461 5.94449 37.4379 5.98467L36.8721 8.72051C36.856 8.80388 36.8364 8.88679 36.8133 8.96925C36.7917 9.0531 36.7673 9.13718 36.7402 9.22151C36.8132 9.17719 36.8856 9.1352 36.9576 9.09553C37.031 9.05725 37.104 9.0228 37.1766 8.99218L39.5407 7.94802C39.5756 7.93283 39.6062 7.92485 39.6325 7.92407C39.66 7.92167 39.6845 7.92484 39.7059 7.9336C39.7301 7.94211 39.7532 7.95527 39.7753 7.97307C39.7989 7.99227 39.8255 8.01574 39.8552 8.0435L40.3637 8.51821Z" fill="white"/>
<path d="M42.5255 13.3554L41.5649 13.9265L42.2414 15.2918L41.6569 15.6393L40.9804 14.274L39.9992 14.8574L40.8686 16.6119L40.2634 16.9717L38.972 14.3653L42.7085 12.1438L44 14.7502L43.3948 15.11L42.5255 13.3554Z" fill="white"/>
</svg>
