<svg width="68" height="73" viewBox="0 0 68 73" fill="none" xmlns="http://www.w3.org/2000/svg">
<path d="M4.5972 24.3445C2.2975 28.7994 1 33.8481 1 39.1976C1 57.2124 15.7142 71.8163 33.8651 71.8163C52.016 71.8163 66.7302 57.2124 66.7302 39.1976C66.7302 34.3858 65.6804 29.8174 63.7958 25.7056" stroke="#C7A055" stroke-width="2"/>
<path d="M21.535 33.1335L20.4431 35.555C20.3433 35.7765 20.4582 36.0331 20.6986 36.1251L35.7379 41.8843C35.88 41.9387 36.0383 41.9285 36.1679 41.8542L46.514 36.0572C46.7377 35.9304 46.813 35.664 46.6753 35.4578L45.194 33.2021C45.0532 32.9888 44.7619 32.9244 44.5436 33.0534L35.6743 38.0757L22.1536 32.8981C21.9133 32.806 21.6349 32.9119 21.535 33.1335ZM30.6326 23.6409L36.2842 16.5481C36.4633 16.3215 36.3669 15.9953 36.0883 15.8887L27.2839 12.4699C26.9179 12.3297 26.5355 12.6379 26.6469 12.9875L29.7942 23.497C29.8175 23.5762 29.8646 23.6478 29.9301 23.7035C29.9956 23.7591 30.0768 23.7967 30.1643 23.8117C30.2519 23.8267 30.3423 23.8187 30.4251 23.7885C30.508 23.7583 30.5799 23.7071 30.6326 23.6409ZM50.8882 21.4971L48.5358 23.9437C48.4539 24.029 48.4115 24.1405 48.4177 24.2543C48.4238 24.3681 48.4781 24.4751 48.5688 24.5526C48.8042 24.7549 49.032 24.9602 49.2575 25.1705C51.1533 26.9474 52.6449 29.024 53.6803 31.3451C54.7151 33.6446 55.2559 36.1073 55.2729 38.5967C55.2901 41.1754 54.7435 43.7308 53.6658 46.1106C52.5807 48.5171 51.0216 50.6535 49.0213 52.4615C47.095 54.2067 44.8196 55.5909 42.3212 56.5374C39.808 57.4937 37.1587 57.9847 34.4525 58.0051C31.6553 58.0155 28.8843 57.5084 26.3036 56.514C23.6923 55.514 21.3686 54.0752 19.4067 52.2317C17.5109 50.4548 16.0193 48.3782 14.9839 46.0571C13.9491 43.7576 13.4083 41.2949 13.3913 38.8055C13.3659 36.2336 13.9111 33.7031 14.9962 31.2966C16.0812 28.8901 17.6403 26.7537 19.6407 24.9457C21.5669 23.2005 23.8423 21.8163 26.3407 20.8698C27.135 20.5718 27.9374 20.3123 28.7545 20.1056L27.5553 16.116C20.2731 17.9736 13.9579 22.7873 10.8398 29.7168C5.40635 41.7814 11.6697 55.5386 24.8187 60.4322C37.7383 65.238 52.4704 59.5738 57.8253 47.6976C62.0362 38.3587 59.1984 27.9442 51.5675 21.468C51.3722 21.3046 51.0655 21.317 50.8882 21.4971Z" fill="#C7A055"/>
<path d="M10.2844 19.6342L11.2924 20.1872L9.42897 23.9116L3.43445 20.6235L4.08373 19.3258L9.07021 22.061L10.2844 19.6342Z" fill="#C7A055"/>
<path d="M14.8314 15.7363L13.8741 16.8181L8.91 12.0024L9.86726 10.9206L14.8314 15.7363Z" fill="#C7A055"/>
<path d="M16.8158 6.50806L17.7839 8.18349L19.8669 6.86391L20.4367 7.84995L18.3537 9.16953L19.7516 11.5887L18.5465 12.3521L15.0434 6.28964L18.7304 3.95382L19.2978 4.93568L16.8158 6.50806Z" fill="#C7A055"/>
<path d="M26.629 2.18563L27.0097 3.96299L29.2123 3.44584L29.4439 4.5275L27.2413 5.04465L27.6301 6.86013L30.4607 6.19553L30.7005 7.31531L26.4956 8.30261L25.0148 1.38853L29.2198 0.401239L29.4597 1.52102L26.629 2.18563Z" fill="#C7A055"/>
<path d="M40.6071 1.7521L38.6401 1.53933L38.0607 7.41207L36.6643 7.26103L37.2437 1.38829L35.2767 1.17552L35.3927 0L40.7231 0.576582L40.6071 1.7521Z" fill="#C7A055"/>
<path d="M45.3258 9.54678L44.019 8.99654L46.5439 2.42244L47.8507 2.97268L45.3258 9.54678Z" fill="#C7A055"/>
<path d="M59.7248 11.4823L55.3348 16.8748L54.3942 16.0353L57.0899 12.724C57.1464 12.6546 57.2081 12.5814 57.275 12.5042C57.3443 12.4291 57.4169 12.3549 57.493 12.2816L53.6389 13.8918C53.4274 13.981 53.2376 13.9507 53.0696 13.8007L52.9205 13.6677C52.8377 13.5938 52.7805 13.5085 52.7488 13.4118C52.7192 13.3127 52.7178 13.2066 52.7445 13.0935L53.6545 8.8365C53.591 8.92956 53.5283 9.01908 53.4665 9.10506C53.4067 9.18857 53.3486 9.26501 53.2921 9.33438L50.5964 12.6457L49.6558 11.8062L54.0458 6.41369L54.855 7.13597C54.9 7.17609 54.9392 7.21323 54.9727 7.24739C55.0062 7.28155 55.0309 7.31643 55.0468 7.35205C55.0671 7.38731 55.0779 7.42683 55.079 7.47061C55.0845 7.51403 55.0808 7.5663 55.0678 7.62743L54.1671 11.7901C54.1415 11.9169 54.1103 12.0431 54.0735 12.1686C54.0391 12.2961 54.0003 12.4241 53.9571 12.5524C54.0733 12.485 54.1886 12.4211 54.3032 12.3607C54.42 12.3025 54.5362 12.25 54.6518 12.2034L58.4148 10.6147C58.4704 10.5916 58.5191 10.5795 58.5609 10.5783C58.6048 10.5746 58.6437 10.5795 58.6778 10.5928C58.7163 10.6057 58.7531 10.6258 58.7883 10.6529C58.8258 10.6821 58.8682 10.7178 58.9155 10.76L59.7248 11.4823Z" fill="#C7A055"/>
<path d="M63.1659 18.8423L61.6369 19.7112L62.7137 21.7885L61.7833 22.3173L60.7065 20.24L59.1447 21.1275L60.5285 23.7971L59.5653 24.3445L57.5096 20.3788L63.4573 16.9987L65.513 20.9644L64.5497 21.5119L63.1659 18.8423Z" fill="#C7A055"/>
</svg>
