<svg width="138" height="111" viewBox="0 0 138 111" fill="none" xmlns="http://www.w3.org/2000/svg">
<path d="M69.5405 9.43136C69.5405 11.1242 70.0209 12.4542 70.9817 13.4216C71.7024 14.1471 72.7833 14.7516 74.2245 15.2353C84.5535 19.3464 92.2402 24.7876 97.2846 31.5588C102.089 38.0882 104.491 45.464 104.491 53.6863C104.491 56.1046 104.01 58.402 103.05 60.5784C102.089 62.7549 99.4465 67.3497 95.1227 74.3627L117.102 57.3137C113.499 55.8628 109.775 55.1373 105.932 55.1373C98.9661 55.1373 92.8407 57.5556 87.5561 62.3922C82.2715 66.9869 79.6292 73.2745 79.6292 81.2549C79.6292 90.4445 82.6319 97.6993 88.6371 103.02C94.4021 108.34 101.368 111 109.535 111C118.663 111 125.749 107.614 130.794 100.843C135.598 94.0719 138 85.8497 138 76.1765C138 63.6013 135.958 52.598 131.875 43.1667C127.791 33.4935 122.627 25.5131 116.381 19.2255C110.136 12.9379 103.53 8.22223 96.564 5.07843C89.5979 1.69281 83.3525 0 77.8277 0C75.4256 0 73.5039 1.08824 72.0627 3.26471C70.3812 5.44118 69.5405 7.49673 69.5405 9.43136ZM0 9.43136C0 11.1242 0.360321 12.4542 1.08093 13.4216C1.80157 14.1471 2.88251 14.7516 4.32376 15.2353C14.6527 19.3464 22.3394 24.7876 27.3838 31.5588C32.188 38.0882 34.5901 45.464 34.5901 53.6863C34.5901 56.1046 34.2298 58.402 33.5091 60.5784C32.5483 62.7549 29.906 67.3497 25.5823 74.3627L47.201 57.3137C43.5979 55.8628 39.8747 55.1373 36.0313 55.1373C29.0653 55.1373 22.9399 57.5556 17.6553 62.3922C12.3708 66.9869 9.72847 73.2745 9.72847 81.2549C9.72847 90.4445 12.7311 97.6993 18.7363 103.02C24.7415 108.34 31.8277 111 39.9948 111C48.8825 111 55.8486 107.614 60.893 100.843C65.6971 94.0719 68.0992 85.8497 68.0992 76.1765C68.0992 63.6013 66.1776 52.598 62.3342 43.1667C58.2507 33.4935 53.0862 25.5131 46.8407 19.2255C40.5953 12.9379 33.9896 8.22223 27.0235 5.07843C20.0574 1.69281 13.6919 0 7.9269 0C5.76501 0 3.96346 1.08824 2.5222 3.26471C0.840729 5.44118 0 7.49673 0 9.43136Z" fill="#C7A055"/>
</svg>
