<svg width="52" height="52" viewBox="0 0 52 52" fill="none" xmlns="http://www.w3.org/2000/svg">
<path fill-rule="evenodd" clip-rule="evenodd" d="M25.8594 0.931152C11.9362 0.931152 0.648933 12.2184 0.648933 26.1416C0.648933 40.0648 11.9362 51.352 25.8594 51.352C39.7826 51.352 51.0698 40.0648 51.0698 26.1416C51.0698 12.2184 39.7826 0.931152 25.8594 0.931152ZM22.2713 19.1765C21.9606 18.8431 21.7915 18.4021 21.7995 17.9464C21.8075 17.4907 21.9921 17.056 22.3144 16.7337C22.6366 16.4115 23.0714 16.2269 23.5271 16.2188C23.9827 16.2108 24.4237 16.3799 24.7572 16.6906L32.9652 24.8987C33.2946 25.2285 33.4796 25.6755 33.4796 26.1416C33.4796 26.6077 33.2946 27.0547 32.9652 27.3845L24.7572 35.5926C24.5961 35.7654 24.402 35.904 24.1862 36.0001C23.9704 36.0963 23.7375 36.1479 23.5014 36.1521C23.2652 36.1563 23.0306 36.1128 22.8116 36.0244C22.5926 35.9359 22.3937 35.8042 22.2266 35.6372C22.0596 35.4702 21.928 35.2713 21.8395 35.0523C21.751 34.8332 21.7076 34.5987 21.7118 34.3625C21.7159 34.1263 21.7676 33.8934 21.8637 33.6777C21.9599 33.4619 22.0985 33.2677 22.2713 33.1067L29.2364 26.1416L22.2713 19.1765Z" fill="#00A95A"/>
</svg>
