<svg width="28" height="29" viewBox="0 0 28 29" fill="none" xmlns="http://www.w3.org/2000/svg">
<g clip-path="url(#clip0_3124_2254)">
<path d="M14.1636 0.97168C10.5729 0.97168 7.126 2.39931 4.58898 4.93802C2.04936 7.47775 0.622309 10.9221 0.621582 14.5137C0.621582 18.1039 2.04985 21.5507 4.58898 24.0895C7.126 26.6282 10.5729 28.0558 14.1636 28.0558C17.7544 28.0558 21.2013 26.6282 23.7383 24.0895C26.2774 21.5507 27.7057 18.1039 27.7057 14.5137C27.7057 10.9236 26.2774 7.47673 23.7383 4.93802C21.2013 2.39931 17.7544 0.97168 14.1636 0.97168Z" fill="#95D8F2"/>
<path d="M6.75349 14.3709C10.7018 12.6511 13.3341 11.5172 14.6502 10.9693C18.4124 9.405 19.1931 9.13331 19.7031 9.1241C19.8152 9.12231 20.0649 9.15002 20.2278 9.28174C20.3633 9.39283 20.4013 9.54306 20.4204 9.64854C20.4373 9.75392 20.4606 9.99408 20.4415 10.1815C20.2384 12.3229 19.3561 17.5192 18.9075 19.9177C18.7192 20.9325 18.3446 21.2727 17.9828 21.3059C17.1957 21.3783 16.599 20.7862 15.8372 20.2871C14.646 19.5057 13.9731 19.0194 12.8157 18.2571C11.4784 17.376 12.3459 16.8916 13.1077 16.1003C13.3066 15.8931 16.7725 12.7414 16.8381 12.4556C16.8466 12.4198 16.855 12.2865 16.7746 12.2162C16.6963 12.1458 16.5799 12.1699 16.4953 12.1889C16.3747 12.216 14.4725 13.4746 10.7823 15.9644C10.2427 16.3356 9.7539 16.5165 9.31378 16.507C8.83135 16.4966 7.90033 16.2336 7.20842 16.0089C6.36204 15.7332 5.68705 15.5874 5.7463 15.1191C5.77592 14.8754 6.11236 14.6259 6.75349 14.3709Z" fill="#002F74"/>
</g>
<defs>
<clipPath id="clip0_3124_2254">
<rect width="27.0841" height="27.0841" fill="white" transform="translate(0.621582 0.97168)"/>
</clipPath>
</defs>
</svg>
