<svg width="64" height="63" viewBox="0 0 64 63" fill="none" xmlns="http://www.w3.org/2000/svg">
<path d="M63.0127 4.50991V29.4468C63.0127 30.1568 62.4384 30.7333 61.7262 30.7333H27.8085C27.0985 30.7333 26.522 30.1568 26.522 29.4468V27.4771L29.095 25.7522V28.1604H60.4375V5.79415H29.0927V15.2067C28.9792 15.2935 28.8568 15.3692 28.75 15.4671L28.3894 15.7164C27.9554 14.5813 27.2944 13.6865 26.522 12.9521V4.50991C26.522 3.7999 27.1007 3.22344 27.8085 3.22344H61.7262C62.4384 3.22344 63.0127 3.79768 63.0127 4.50991ZM32.6428 21.412L34.183 20.3793H34.1807C34.183 20.3704 34.1874 20.3704 34.1919 20.3637C34.9753 19.5869 35.0955 18.4318 34.6103 17.5215L47.0721 9.06595L46.5068 8.23131L33.9404 16.7558C33.5464 16.4709 33.1057 16.2906 32.6428 16.275C31.9839 16.2528 31.314 16.4754 30.811 16.9806C30.811 16.9806 30.7999 16.994 30.7954 16.994L30.4883 17.2076L27.6972 19.1128V18.3027C27.1786 12.1397 20.0363 12.2309 20.0363 12.2309H16.9426L14.3429 16.5087L11.7299 12.2331H8.76304C0.703716 12.3845 0.988608 18.3027 0.988608 18.3027V32.1155H0.993059C0.995285 32.1511 0.988608 32.1934 0.988608 32.2223C0.988608 33.5377 2.05027 34.5949 3.36122 34.5949C4.66772 34.5949 5.72939 33.5333 5.72939 32.2223C5.72939 32.1934 5.72939 32.1511 5.72493 32.1155H5.72939V19.3399H7.21171L7.19391 59.5875C7.19391 61.357 8.63172 62.7948 10.3945 62.7948C12.1639 62.7948 13.5973 61.357 13.5973 59.5875V33.6134H15.024V59.6164L15.0507 59.6454C15.0729 61.3837 16.4885 62.7948 18.2379 62.7948C19.994 62.7948 21.4229 61.3636 21.4229 59.6075L21.414 19.2731H22.9564V23.4752C22.9564 23.4797 22.9564 23.4908 22.9564 23.4953C22.9564 24.8018 24.0181 25.8657 25.3224 25.8657C25.7074 25.8657 26.0524 25.7566 26.3796 25.5874L26.3907 25.603L30.486 22.8565L32.6428 21.412ZM14.2962 11.2026C17.292 11.2026 19.7202 8.77438 19.7202 5.77857C19.7202 2.78275 17.292 0.354492 14.2962 0.354492C11.3004 0.354492 8.8721 2.78498 8.8721 5.77857C8.8721 8.77215 11.3004 11.2026 14.2962 11.2026Z" fill="#C7A055"/>
</svg>
