<svg width="36" height="36" viewBox="0 0 36 36" fill="none" xmlns="http://www.w3.org/2000/svg">
<path fill-rule="evenodd" clip-rule="evenodd" d="M18 3.00002C19.9698 3.00001 21.9204 3.38799 23.7403 4.14181C25.5602 4.89562 27.2138 6.00051 28.6066 7.39339C29.9995 8.78627 31.1044 10.4399 31.8582 12.2597C32.6121 14.0796 33.0001 16.0302 33.0001 18C33.0001 26.2843 26.2843 33 18 33C9.71579 33 3.00003 26.2843 3.00003 18C3.00003 9.71578 9.71579 3.00002 18 3.00002ZM19.5001 19.5H16.5C12.7865 19.5 9.5983 21.7491 8.2232 24.9597C10.3989 28.0106 13.9672 30 18 30C22.0329 30 25.6011 28.0106 27.7769 24.9595C26.4018 21.7491 23.2136 19.5 19.5001 19.5ZM18 7.50002C15.5147 7.50002 13.5 9.51476 13.5 12C13.5 14.4853 15.5147 16.5 18 16.5C20.4853 16.5 22.5 14.4853 22.5 12C22.5 9.51476 20.4853 7.50002 18 7.50002Z" fill="#2177F6"/>
</svg>
