<svg width="29" height="30" viewBox="0 0 29 30" fill="none" xmlns="http://www.w3.org/2000/svg">
<g clip-path="url(#clip0_3124_2269)">
<mask id="mask0_3124_2269" style="mask-type:luminance" maskUnits="userSpaceOnUse" x="0" y="0" width="29" height="30">
<path d="M0.664551 0.793945H28.9262V29.0556H0.664551V0.793945Z" fill="white"/>
</mask>
<g mask="url(#mask0_3124_2269)">
<path d="M28.3382 8.45578C28.1774 7.88526 27.8658 7.36863 27.4362 6.96026C26.9938 6.53988 26.4515 6.23916 25.8606 6.08651C23.6491 5.50361 14.7891 5.50361 14.7891 5.50361C11.0955 5.46269 7.40278 5.64752 3.7317 6.05707C3.14078 6.221 2.59954 6.52843 2.15611 6.95202C1.72041 7.37124 1.40482 7.88819 1.23996 8.4546C0.843299 10.588 0.650877 12.7543 0.665306 14.9242C0.651175 17.0921 0.843119 19.2576 1.23996 21.3937C1.40129 21.9578 1.7157 22.4724 2.15258 22.8881C2.58946 23.3038 3.13349 23.604 3.7317 23.763C5.97261 24.3447 14.7891 24.3447 14.7891 24.3447C18.4874 24.3862 22.1848 24.2014 25.8606 23.7913C26.4515 23.6386 26.9938 23.3379 27.4362 22.9175C27.8654 22.509 28.1766 21.9924 28.337 21.422C28.7432 19.2893 28.9408 17.1222 28.927 14.9513C28.9574 12.7711 28.76 10.5949 28.3382 8.45578ZM11.9723 18.9562V10.8933L19.3439 14.9253L11.9723 18.9562Z" fill="#95D8F2"/>
</g>
</g>
<defs>
<clipPath id="clip0_3124_2269">
<rect width="28.2617" height="28.2617" fill="white" transform="translate(0.664551 0.793945)"/>
</clipPath>
</defs>
</svg>
